<svg width="24" height="24" viewBox="1.5 1.5 21 21" xmlns="http://www.w3.org/2000/svg" fill="none">
  <path
    fill="currentColor"
    fill-rule="evenodd"
    d="M12 1.5C17.799 1.5 22.5 6.201 22.5 12C22.5 17.799 17.799 22.5 12 22.5C6.201 22.5 1.5 17.799 1.5 12C1.5 6.201 6.201 1.5 12 1.5ZM12 4.9C8.079 4.9 4.9 8.079 4.9 12C4.9 15.921 8.079 19.1 12 19.1C15.921 19.1 19.1 15.921 19.1 12C19.1 8.079 15.921 4.9 12 4.9Z"
    clip-rule="evenodd"
  />
  <g fill="currentColor" transform="translate(12 12) scale(0.19) translate(-64 -64)">
    <path d="M64 29C72 29 78 35 78 43C78 49 73 54 67 54C63 54 59 52 56 49C61 48 65 44 65 39C65 35 62 31 58 29C60 29 62 29 64 29Z" />
    <path d="M64 29C72 29 78 35 78 43C78 49 73 54 67 54C63 54 59 52 56 49C61 48 65 44 65 39C65 35 62 31 58 29C60 29 62 29 64 29Z" transform="rotate(120 64 64)" />
    <path d="M64 29C72 29 78 35 78 43C78 49 73 54 67 54C63 54 59 52 56 49C61 48 65 44 65 39C65 35 62 31 58 29C60 29 62 29 64 29Z" transform="rotate(240 64 64)" />
  </g>
</svg>
